<svg width="24" height="24" viewBox="0 0 24 24" fill="none" xmlns="http://www.w3.org/2000/svg">
<path fill-rule="evenodd" clip-rule="evenodd" d="M14.1051 0.133056C13.2057 0.731348 11.6813 2.11567 10.7375 3.5C9.71491 5 9.20358 7.1 9.2036 9.5C9.20362 11.556 9.59219 12.291 10.0136 13.0882C10.0841 13.2216 10.1555 13.3567 10.2262 13.5C10.4728 14 11.5795 15.7155 12.7828 16.5C14.3167 17.5 16.362 18 18.4072 18C20.435 18 22.7644 17.1153 24 15.5408C22.4551 20.4399 17.7885 24 12.2715 24C5.49412 24 0 18.6274 0 12C0 5.37258 5.49412 0 12.2715 0C12.8946 0 13.5069 0.0454195 14.1051 0.133056Z" fill="black"/>
</svg>
